<?xml version="1.0" standalone="no"?><!DOCTYPE svg PUBLIC "-//W3C//DTD SVG 1.1//EN" "http://www.w3.org/Graphics/SVG/1.1/DTD/svg11.dtd"><svg t="1774414718936" class="icon" viewBox="0 0 1024 1024" version="1.1" xmlns="http://www.w3.org/2000/svg" p-id="33255" xmlns:xlink="http://www.w3.org/1999/xlink" width="200" height="200"><path d="M667.028 411.244h248.159a53.895 53.895 0 0 0 53.894-53.895V109.514a53.895 53.895 0 0 0-53.894-53.895H667a53.895 53.895 0 0 0-53.894 53.895V357.35A53.895 53.895 0 0 0 667 411.244z m101.7-101.592h44.76a53.895 53.895 0 0 0 53.894-53.895v-44.624a53.895 53.895 0 0 0-53.895-53.895h-44.76a53.895 53.895 0 0 0-53.894 53.895v44.598a53.895 53.895 0 0 0 53.895 53.894zM511.434 208.061a50.85 50.85 0 0 0 50.85-50.877v-50.715a50.85 50.85 0 1 0-101.7 0v50.715c0 28.08 22.744 50.85 50.85 50.85zM107.79 411.217H355.84a53.895 53.895 0 0 0 53.895-53.895V109.514A53.895 53.895 0 0 0 355.84 55.62H107.79a53.895 53.895 0 0 0-53.895 53.895V357.35a53.895 53.895 0 0 0 53.894 53.895z m101.592-101.592h44.733a53.895 53.895 0 0 0 53.894-53.894v-44.598a53.895 53.895 0 0 0-53.894-53.895H209.38a53.895 53.895 0 0 0-53.895 53.895v44.598a53.895 53.895 0 0 0 53.895 53.894z m251.203 50.85v47.67a53.895 53.895 0 0 1-53.894 53.895h-22.447a50.796 50.796 0 1 0 0 101.591h22.42a53.895 53.895 0 0 1 53.894 53.895v47.697a50.85 50.85 0 0 0 101.7 0V360.448a50.85 50.85 0 0 0-101.7 0zM841.89 563.658h76.395a50.796 50.796 0 0 0 0-101.591l-76.368-0.027a50.796 50.796 0 0 0 0 101.591z m-737.2 0h76.262a50.796 50.796 0 0 0 0-101.591l-76.261-0.027a50.796 50.796 0 1 0 0 101.591z m762.692 101.646v149.288a53.895 53.895 0 0 1-53.895 53.895H663.93a50.796 50.796 0 1 0 0 101.591h251.258a53.895 53.895 0 0 0 53.894-53.894v-250.88a50.85 50.85 0 1 0-101.7 0z m-254.249 3.045v98.465c0 28.08 22.771 50.85 50.85 50.85h0.054a50.796 50.796 0 0 0 50.796-50.796c0-28.079 22.743-50.823 50.796-50.823h0.107a50.796 50.796 0 1 0 0-101.591h-98.708a53.895 53.895 0 0 0-53.895 53.895zM107.79 970.105H355.84a53.895 53.895 0 0 0 53.895-53.894V668.376a53.895 53.895 0 0 0-53.895-53.895H107.79a53.895 53.895 0 0 0-53.895 53.895V916.21a53.895 53.895 0 0 0 53.894 53.894z m101.592-101.591h44.733a53.895 53.895 0 0 0 53.894-53.895v-44.652a53.895 53.895 0 0 0-53.894-53.895H209.38a53.895 53.895 0 0 0-53.895 53.895v44.625a53.895 53.895 0 0 0 53.895 53.895z m302.026 101.591a50.85 50.85 0 0 0 50.85-50.85v-50.714a50.85 50.85 0 1 0-101.7 0v50.715c0 28.079 22.744 50.85 50.85 50.85z" fill="#3DA5FE" p-id="33256"></path></svg>