<?xml version="1.0" standalone="no"?><!DOCTYPE svg PUBLIC "-//W3C//DTD SVG 1.1//EN" "http://www.w3.org/Graphics/SVG/1.1/DTD/svg11.dtd"><svg t="1774414496852" class="icon" viewBox="0 0 1024 1024" version="1.1" xmlns="http://www.w3.org/2000/svg" p-id="25579" xmlns:xlink="http://www.w3.org/1999/xlink" width="200" height="200"><path d="M702.831094 411.532075L358.245434 616.873057a106.322113 106.322113 0 0 1-108.331472 0.193207l-68.704604 40.96a50.910189 50.910189 0 0 1-69.825207-17.67849l-0.057962-0.115925a50.910189 50.910189 0 0 1 17.659169-69.805887l68.723925-40.96a106.322113 106.322113 0 0 1 51.740981-95.154717l344.604981-205.340981z" fill="#D0D0F7" p-id="25580"></path><path d="M702.831094 411.532075L358.245434 616.873057a106.322113 106.322113 0 0 1-108.331472 0.193207l-68.704604 40.96a50.910189 50.910189 0 0 1-69.825207-17.67849l-0.057962-0.115925a49.577057 49.577057 0 0 1-6.704302-19.417358c15.843019 11.592453 37.907321 13.292679 55.914264 2.550339l68.723924-40.96a106.322113 106.322113 0 0 0 108.312151-0.193207l268.481208-159.99517a54.329962 54.329962 0 0 0 18.857057-74.48151l-60.319397-101.202113 29.464151-17.562566z" fill="#C2C2EF" p-id="25581"></path><path d="M570.735094 490.322113L358.264755 616.911698a106.669887 106.669887 0 0 1-108.389434 0.154566l-68.704604 40.96a50.94883 50.94883 0 0 1-69.844528-17.697811l0.038641-0.135245a48.108679 48.108679 0 0 1-6.704302-19.456 50.69766 50.69766 0 0 1 24.382793-50.388529l68.723924-40.940679c-1.255849-37.482264 17.098868-74.616755 51.683019-95.096755l145.678491-86.808151 142.181434 115.673359 33.28966 27.087698z" fill="#FC6559" p-id="25582"></path><path d="M243.016453 488.254792a10.858264 10.858264 0 0 1 3.767547-14.876981l76.355623-45.481056a10.858264 10.858264 0 0 1 11.109434 18.625207l-76.355623 45.500378a10.858264 10.858264 0 0 1-14.876981-3.767548zM358.631849 419.376302a10.858264 10.858264 0 0 1 3.767547-14.876981l11.785661-7.032755a10.858264 10.858264 0 0 1 11.109434 18.644528l-11.785661 7.013434a10.858264 10.858264 0 0 1-14.876981-3.748226z" fill="#FFFFFF" opacity=".3" p-id="25583"></path><path d="M570.599849 490.283472l-212.335094 126.647547a106.669887 106.669887 0 0 1-108.389434 0.154566l-68.704604 40.96a50.94883 50.94883 0 0 1-69.844528-17.697811l0.038641-0.135246a48.108679 48.108679 0 0 1-6.704302-19.456c15.843019 11.631094 37.810717 13.312 55.875623 2.666264l68.723924-40.96a106.090264 106.090264 0 0 0 108.27351-0.328452l199.776604-118.938566z" fill="#F05543" p-id="25584"></path><path d="M918.895094 294.506264l-102.14883 60.860378L697.653132 155.532075l102.14883-60.860377a116.330264 116.330264 0 1 1 119.093132 199.873208z" fill="#F9B938" p-id="25585"></path><path d="M772.59834 161.366943a10.858264 10.858264 0 0 1 3.767547-14.876981l7.477132-4.443773a10.858264 10.858264 0 0 1 11.109434 18.644528l-7.477132 4.443774a10.858264 10.858264 0 0 1-14.876981-3.767548zM812.688906 137.486491a10.858264 10.858264 0 0 1 3.767547-14.876982 83.369057 83.369057 0 0 1 113.16166 26.720604c3.052679 5.293887 1.777509 11.76634-3.245887 14.992906a10.877585 10.877585 0 0 1-15.012226-3.245887 61.749132 61.749132 0 0 0-83.794113-19.823094 10.858264 10.858264 0 0 1-14.876981-3.767547z" fill="#FFFFFF" opacity=".3" p-id="25586"></path><path d="M918.895094 294.564226l-102.14883 60.860378-119.151094-199.950491 27.338868-16.287396 71.158339 119.402264a63.661887 63.661887 0 0 0 87.29117 22.122264l47.451774-28.285585a114.93917 114.93917 0 0 0 44.534339-47.915471 116.562113 116.562113 0 0 1-56.474566 90.034717z" fill="#E5A320" p-id="25587"></path><path d="M795.590038 443.469283a63.256151 63.256151 0 0 0 21.948377-86.750189L696.84166 154.179623a63.256151 63.256151 0 0 0-108.698566 64.763169l120.716076 202.578114a63.256151 63.256151 0 0 0 86.730868 21.967698z" fill="#F9B938" p-id="25588"></path><path d="M656.712453 192.801811l-3.999396-6.704302a10.858264 10.858264 0 0 1 18.644528-11.109434l3.999396 6.704302a10.858264 10.858264 0 0 1-18.644528 11.109434zM709.651321 281.638642l-33.154415-55.643774a10.858264 10.858264 0 0 1 18.625207-11.109434l33.173736 55.643774a10.858264 10.858264 0 0 1-18.644528 11.109434z" fill="#FFFFFF" opacity=".3" p-id="25589"></path><path d="M795.628679 443.469283a63.314113 63.314113 0 0 1-86.808151-21.871094l-120.754717-202.674717a62.96634 62.96634 0 0 1-6.994113-47.896151c1.294491-4.636981 2.956075-9.158038 5.177962-13.350642a61.826415 61.826415 0 0 0 8.732982 35.550189l120.696754 202.558792a63.314113 63.314113 0 0 0 86.78883 21.871095 62.077585 62.077585 0 0 0 23.80317-25.638642 62.637887 62.637887 0 0 1-30.662038 51.45117z" fill="#E5A320" p-id="25590"></path><path d="M227.424604 856.218566a89.571019 89.571019 0 0 1-179.122717 0c0-32.690717 39.027925-94.362566 65.555321-132.521057a29.212981 29.212981 0 0 1 48.031396 0c26.527396 38.158491 65.536 99.83034 65.536 132.521057z" fill="#FC6559" p-id="25591"></path><path d="M84.972679 887.730717a10.008151 10.008151 0 0 1-9.699019-7.612377c-1.932075-7.766943-2.898113-15.823698-2.898113-23.919095 0-6.144 1.159245-13.331321 3.400453-21.310792a10.008151 10.008151 0 1 1 19.282113 5.467773 59.89434 59.89434 0 0 0-2.666264 15.843019c0 6.491774 0.77283 12.906264 2.318491 19.127547a10.008151 10.008151 0 0 1-9.737661 12.403925zM97.78234 816.495094a10.008151 10.008151 0 0 1-9.022793-14.35532c1.178566-2.434415 2.415094-4.907472 3.690264-7.380529a10.008151 10.008151 0 0 1 17.813736 9.158038l-3.458415 6.91683a10.008151 10.008151 0 0 1-9.022792 5.660981z" fill="#FFFFFF" opacity=".3" p-id="25592"></path><path d="M227.424604 856.218566a89.493736 89.493736 0 0 1-89.551698 89.551698c-17.891019 0-34.584151-5.216604-48.456453-14.278038 4.810868 0.927396 9.73766 1.352453 14.683773 1.352453a89.493736 89.493736 0 0 0 89.551699-89.571019c0-32.169057-37.907321-92.643019-64.338114-130.801509a29.348226 29.348226 0 0 1 32.574793 11.206038c26.566038 38.158491 65.536 99.83034 65.536 132.540377z" fill="#F05543" p-id="25593"></path></svg>