<?xml version="1.0" standalone="no"?><!DOCTYPE svg PUBLIC "-//W3C//DTD SVG 1.1//EN" "http://www.w3.org/Graphics/SVG/1.1/DTD/svg11.dtd"><svg t="1775222052899" class="icon" viewBox="0 0 1024 1024" version="1.1" xmlns="http://www.w3.org/2000/svg" p-id="4783" xmlns:xlink="http://www.w3.org/1999/xlink" width="200" height="200"><path d="M846.6432 518.7584c0.9728-44.032 20.3264-70.4512 43.4176-86.3744 46.1824-31.7952 62.5664-92.2624 35.7888-141.5168-1.28-2.3552-2.56-4.6592-3.8912-6.9632-26.9824-47.5648-85.504-67.2768-136.192-46.7968-15.0016 6.0928-31.6416 8.9088-49.1008 7.7312-52.5824-3.584-96.0512-44.9024-102.144-97.28l-0.1536-1.5872c-5.5296-53.504-48.8448-95.6928-102.6048-97.1776-4.352-0.1024-8.704-0.2048-13.056-0.2048-4.6592 0-9.2672 0.0512-13.8752 0.2048-53.7088 1.5872-97.0752 43.6224-102.5536 97.0752-0.0512 0.5632-0.1024 1.1776-0.2048 1.7408-6.144 52.224-49.4592 93.44-101.9392 97.1264-16.9984 1.1776-33.2288-1.4336-47.9232-7.168-51.5072-20.0192-110.5408-0.6144-137.6256 47.5648-1.28 2.2528-2.5088 4.5056-3.7376 6.7584-26.88 49.7664-11.3152 110.7456 34.56 143.872 22.5792 16.3328 41.2672 42.1376 41.2672 82.944 0 37.1712-19.8656 62.5664-43.2128 79.5648-42.3936 30.8224-57.5488 87.6032-32.6144 133.6832l3.3792 6.144c26.0608 46.5408 83.5584 67.4816 132.096 45.3632 15.872-7.2192 33.7408-10.8032 52.5824-9.6768 53.8112 3.2256 98.2528 45.9776 103.3728 99.6864l0.1536 1.792c4.352 54.5792 48.1792 98.2016 102.912 99.7888 4.4032 0.1024 8.8576 0.2048 13.312 0.2048 4.1984 0 8.3456-0.0512 12.4928-0.1536 54.8352-1.4848 98.56-45.2096 102.9632-99.8912l0.1536-1.5872c5.0688-53.8112 49.6128-96.6144 103.5264-99.7888 18.8928-1.1264 36.8128 2.5088 52.6848 9.8304 47.2064 21.6576 102.8096 5.7856 128.9216-39.1168 1.3824-2.3552 2.7648-4.7616 4.096-7.168 25.3952-45.568 12.5952-103.936-31.0784-132.4032-24.576-16.0256-46.7456-42.5472-45.7728-86.2208z" fill="#CCDAFF" p-id="4784"></path><path d="M518.6048 512m-173.568 0a173.568 173.568 0 1 0 347.136 0 173.568 173.568 0 1 0-347.136 0Z" fill="#7A7AF9" p-id="4785"></path></svg>
