<?xml version="1.0" standalone="no"?><!DOCTYPE svg PUBLIC "-//W3C//DTD SVG 1.1//EN" "http://www.w3.org/Graphics/SVG/1.1/DTD/svg11.dtd"><svg t="1774414577694" class="icon" viewBox="0 0 1024 1024" version="1.1" xmlns="http://www.w3.org/2000/svg" p-id="26664" xmlns:xlink="http://www.w3.org/1999/xlink" width="200" height="200"><path d="M901.625 926.725c0 12.8-5.125 25.0875-14.3375 34.3-9.225 9.2125-21.5 14.3375-34.3125 14.3375H170.4875c-12.8 0-25.6-5.125-34.3-14.3375-9.2125-9.225-14.3375-21.5-14.3375-34.3V48.6375c0-12.8 5.1125-25.6 14.3375-34.3C144.8875 5.125 157.6875 0 170.4875 0h418.8125c12.8 0 25.6 5.125 34.8125 14.3375l263.675 263.6875c9.2125 9.2125 14.3375 21.5 14.3375 34.8125v613.8875h-0.5125z" fill="#EBECF0" p-id="26665"></path><path d="M901.625 926.725v48.6375c0 12.8-5.125 25.6-14.3375 34.3-9.225 9.225-21.5 14.3375-34.3125 14.3375H170.4875c-27.1375 0-48.6375-22.0125-48.6375-48.6375v-48.6375c0 12.8 5.1125 25.0875 14.3375 34.3 9.2125 9.2125 21.5 14.3375 34.3 14.3375h682.5c27.1375 0 48.6375-22.0125 48.6375-48.6375z" fill="#C1C7D0" p-id="26666"></path><path d="M121.85 536.575v-97.8L24.0625 536.575h97.7875z m779.775 0l1.025-97.8 97.275 97.8h-98.3z" fill="#E5810A" p-id="26667"></path><path d="M901.625 312.8375v6.65H637.9375c-27.1375 0-48.6375-22.0125-48.6375-48.6375V0c12.8 0 25.6 5.125 34.8125 14.3375L888.3125 278.025c8.7 9.2125 13.825 21.5 13.3125 34.8125z" fill="#C1C7D0" p-id="26668"></path><path d="M24.575 536.575H999.9375v243.7125c0 27.1375-22.0125 48.6375-48.6375 48.6375H73.725c-12.8 0-25.6-5.1125-34.3-14.3375C30.2 805.375 25.0875 793.0875 25.0875 779.775V536.575H24.575z" fill="#FFA329" p-id="26669"></path><path d="M211 763.1c-10.825-5.3125-19.1625-12.875-25.025-22.6875-5.875-9.8-8.8-21.0375-8.8-33.6875V690.5c0-0.9125 0.3125-1.7 0.9625-2.3375s1.4125-0.9625 2.3375-0.9625h39.05c0.9125 0 1.6875 0.325 2.3375 0.9625 0.6375 0.65 0.9625 1.425 0.9625 2.3375v15.95c0 7.7 2.2875 13.8875 6.875 18.5625 4.575 4.675 10.9 7.0125 18.975 7.0125s14.025-2.3375 18.975-7.0125 7.425-10.8625 7.425-18.5625V579.675c0-0.9125 0.3125-1.6875 0.9625-2.3375 0.6375-0.6375 1.4125-0.9625 2.3375-0.9625h38.775c0.9125 0 1.6875 0.325 2.3375 0.9625 0.6375 0.65 0.9625 1.425 0.9625 2.3375v127.05c0 12.65-3.025 23.8375-9.075 33.55-6.05 9.725-14.5375 17.275-25.4375 22.6875-10.9125 5.4125-23.3375 8.1125-37.2625 8.1125s-26.8625-2.65-37.675-7.975zM377.5125 763.7875c-11.275-4.85-19.9875-11.825-26.125-20.9-6.15-9.075-9.2125-19.5625-9.2125-31.4875v-5.225c0-0.9125 0.3125-1.6875 0.9625-2.3375s1.4125-0.9625 2.3375-0.9625h38.225c0.9125 0 1.6875 0.325 2.3375 0.9625 0.6375 0.65 0.9625 1.425 0.9625 2.3375v3.3c0 6.05 3.025 11.325 9.075 15.8125 6.05 4.5 14.2 6.7375 24.475 6.7375 8.0625 0 14.025-1.7375 17.875-5.225 3.85-3.475 5.775-7.5125 5.775-12.1 0-3.6625-1.15-6.6375-3.4375-8.9375-2.2875-2.2875-5.3625-4.2125-9.2125-5.775-3.85-1.55-9.8125-3.7125-17.875-6.4625-1.1-0.55-2.2-0.9625-3.3-1.2375s-2.1125-0.5875-3.025-0.9625c-11.925-3.85-22.275-8.0125-31.075-12.5125-8.8-4.4875-16.325-10.725-22.55-18.7-6.2375-7.975-9.35-17.825-9.35-29.5625s2.975-21.3125 8.9375-29.8375c5.95-8.525 14.25-15.075 24.8875-19.6625 10.625-4.5875 22.6375-6.875 36.025-6.875 14.1125 0 26.8125 2.575 38.0875 7.7 11.275 5.1375 20.1125 12.375 26.5375 21.725 6.4125 9.35 9.625 20.075 9.625 32.175v3.85c0 0.925-0.325 1.7-0.9625 2.3375s-1.425 0.9625-2.3375 0.9625h-38.225c-0.925 0-1.7-0.3125-2.3375-0.9625-0.65-0.6375-0.9625-1.4125-0.9625-2.3375v-1.925c0-6.4125-2.85-12.1-8.525-17.05-5.6875-4.95-13.3-7.425-22.825-7.425-7.15 0-12.75 1.475-16.775 4.4-4.0375 2.9375-6.05 7.0625-6.05 12.375 0 4.0375 1.275 7.3875 3.85 10.0375 2.5625 2.6625 6.55 5.1375 11.9625 7.425 5.4 2.3 13.7 5.275 24.8875 8.9375 12.825 4.4 22.825 8.25 29.975 11.55 7.15 3.3 13.8875 8.6625 20.2125 16.0875 6.325 7.425 9.4875 17.1875 9.4875 29.2875s-3.025 22.1875-9.075 30.8c-6.05 8.6125-14.5375 15.2625-25.4375 19.9375-10.9125 4.675-23.6125 7.0125-38.0875 7.0125-15.225 0-28.4625-2.425-39.7375-7.2875zM544.7125 762.9625c-11.275-5.95-20.0375-14.3375-26.2625-25.1625-6.2375-10.8125-9.35-23.375-9.35-37.675v-55c0-13.925 3.1125-26.2625 9.35-36.9875 6.225-10.725 14.9875-19.0625 26.2625-25.025 11.275-5.95 24.3375-8.9375 39.1875-8.9375s27.95 2.9875 39.325 8.9375c11.3625 5.9625 20.1625 14.3 26.4 25.025 6.225 10.725 9.35 23.0625 9.35 36.9875v55c0 14.3-3.125 26.8625-9.35 37.675-6.2375 10.825-15.0375 19.2125-26.4 25.1625-11.375 5.9625-24.475 8.9375-39.325 8.9375s-27.9125-2.975-39.1875-8.9375z m60.5-38.6375c5.4-5.675 8.1125-13.2875 8.1125-22.825v-56.925c0-9.35-2.7125-16.9125-8.1125-22.6875-5.4125-5.775-12.5125-8.6625-21.3125-8.6625s-15.6375 2.8875-21.0375 8.6625c-5.4125 5.775-8.1125 13.3375-8.1125 22.6875v56.925c0 9.5375 2.7 17.15 8.1125 22.825 5.4 5.6875 12.4125 8.525 21.0375 8.525s15.9-2.8375 21.3125-8.525zM793.025 577.3375c0.6375-0.6375 1.4125-0.9625 2.3375-0.9625h39.05c0.9125 0 1.6875 0.325 2.3375 0.9625 0.6375 0.65 0.9625 1.425 0.9625 2.3375v185.9c0 0.9125-0.325 1.7-0.9625 2.3375s-1.425 0.9625-2.3375 0.9625h-37.4c-1.8375 0-3.125-0.725-3.85-2.2l-63.25-105.05c-0.375-0.55-0.7375-0.775-1.1-0.6875-0.3625 0.1-0.55 0.5125-0.55 1.2375l0.275 103.4c0 0.9125-0.325 1.7-0.9625 2.3375s-1.425 0.9625-2.3375 0.9625H686.1875c-0.925 0-1.7-0.3125-2.3375-0.9625-0.65-0.6375-0.9625-1.4125-0.9625-2.3375V579.675c0-0.9125 0.3125-1.6875 0.9625-2.3375 0.6375-0.6375 1.4125-0.9625 2.3375-0.9625h37.675c1.825 0 3.1125 0.7375 3.85 2.2l62.975 104.775c0.3625 0.55 0.725 0.7875 1.1 0.6875 0.3625-0.0875 0.55-0.5 0.55-1.2375l-0.275-103.125c0-0.9125 0.3125-1.6875 0.9625-2.3375z" fill="#FFFFFF" p-id="26670"></path></svg>