<?xml version="1.0" standalone="no"?><!DOCTYPE svg PUBLIC "-//W3C//DTD SVG 1.1//EN" "http://www.w3.org/Graphics/SVG/1.1/DTD/svg11.dtd"><svg t="1775369382033" class="icon" viewBox="0 0 1024 1024" version="1.1" xmlns="http://www.w3.org/2000/svg" p-id="8173" xmlns:xlink="http://www.w3.org/1999/xlink" width="200" height="200"><path d="M192 0h448.154L960 320v576c0 70.694-57.306 128-128 128H192c-70.694 0-128-57.306-128-128V128C64 57.306 121.306 0 192 0z" fill="#9AD5F5" p-id="8174"></path><path d="M652.096 667.507a176.998 176.998 0 0 1-99.43 65.728 352.282 352.282 0 0 0 29.657-65.728h69.76z m-100.39 0a329.958 329.958 0 0 1-33.895 67.712l-2.099 2.79c-1.907 0.039-3.827 0.065-5.734 0.039l-3.79-5.069a337.178 337.178 0 0 1-33.254-65.472h78.772z m-78.26-208.601c12.135-33.344 26.599-56.423 32.448-65.063l4.096-5.478a76.622 76.622 0 0 1 3.43 0l5.364 8.909h0.474c3.699 4.89 18.048 26.944 30.579 61.632h-76.39z m107.968 0a361.549 361.549 0 0 0-28.492-65.664 177.024 177.024 0 0 1 99.174 65.664h-70.682z m-117.273 29.939h94.937c13.005 50.304 13.568 100.3 1.664 148.71h-97.254c-12.544-48.563-12.326-98.56 0.653-148.71z m-92.237-29.952a176.934 176.934 0 0 1 100.122-65.895 386.662 386.662 0 0 0-28.493 65.908h-71.629z m69.888 208.614a348.787 348.787 0 0 0 29.542 65.728 177.024 177.024 0 0 1-99.43-65.728h69.888z m-8.256-29.952h-79.68a172.16 172.16 0 0 1-16.717-74.355c0-25.971 5.632-50.97 16.717-74.368h81.28c-11.878 50.432-12.416 100.403-1.6 148.736z m156.173-148.71h80.435a172.16 172.16 0 0 1 16.704 74.355c0 25.958-5.632 50.97-16.717 74.342h-79.475c11.008-48.435 10.688-98.419-0.96-148.71z m67.353-70.707C618.534 379.61 567.014 358.4 512 358.4c-55.027 0-106.547 21.21-145.062 59.738C328.41 456.666 307.2 508.186 307.2 563.2c0 55.027 21.21 106.534 59.738 145.062S456.96 768 512 768c55.014 0 106.534-21.21 145.062-59.738S716.8 618.227 716.8 563.2c0-55.014-21.21-106.534-59.738-145.062z" fill="#FFFFFF" fill-opacity=".9" p-id="8175"></path><path d="M640 0l320 320H768c-70.694 0-128-57.306-128-128V0z" fill="#57B9EF" p-id="8176"></path></svg>