<?xml version="1.0" standalone="no"?><!DOCTYPE svg PUBLIC "-//W3C//DTD SVG 1.1//EN" "http://www.w3.org/Graphics/SVG/1.1/DTD/svg11.dtd"><svg t="1774414143429" class="icon" viewBox="0 0 1024 1024" version="1.1" xmlns="http://www.w3.org/2000/svg" p-id="10002" xmlns:xlink="http://www.w3.org/1999/xlink" width="200" height="200"><path d="M991.430676 960.07591a63.92409 63.92409 0 0 1-63.92409 63.92409H64.531369a63.92409 63.92409 0 0 1-63.92409-63.92409v-894.937262a63.92409 63.92409 0 0 1 63.92409-63.92409h862.975217a63.92409 63.92409 0 0 1 63.92409 63.92409v894.937262z" fill="#434854" p-id="10003"></path><path d="M927.506586 992.037955H64.531369a63.92409 63.92409 0 0 1-63.92409-63.92409v31.962045a63.92409 63.92409 0 0 0 63.92409 63.92409h862.975217a63.92409 63.92409 0 0 0 63.92409-63.92409v-31.962045a63.92409 63.92409 0 0 1-63.92409 63.92409z" fill="" p-id="10004"></path><path d="M288.265684 416.721144H128.455459a31.962045 31.962045 0 0 0-31.962045 31.962045v159.810225a31.962045 31.962045 0 0 0 31.962045 31.962045h159.810225a31.962045 31.962045 0 0 0 31.962046-31.962045v-159.810225a31.962045 31.962045 0 0 0-31.962046-31.962045zM575.92409 416.721144h-159.810225a31.962045 31.962045 0 0 0-31.962045 31.962045v159.810225a31.962045 31.962045 0 0 0 31.962045 31.962045h159.810225a31.962045 31.962045 0 0 0 31.962045-31.962045v-159.810225a31.962045 31.962045 0 0 0-31.962045-31.962045zM288.265684 704.379549H128.455459a31.962045 31.962045 0 0 0-31.962045 31.962045v159.810226a31.962045 31.962045 0 0 0 31.962045 31.962045h159.810225a31.962045 31.962045 0 0 0 31.962046-31.962045v-159.810226a31.962045 31.962045 0 0 0-31.962046-31.962045zM575.92409 704.379549h-159.810225a31.962045 31.962045 0 0 0-31.962045 31.962045v159.810226a31.962045 31.962045 0 0 0 31.962045 31.962045h159.810225a31.962045 31.962045 0 0 0 31.962045-31.962045v-159.810226a31.962045 31.962045 0 0 0-31.962045-31.962045z" fill="#FFFFFF" p-id="10005"></path><path d="M863.582496 704.379549h-159.810226a31.962045 31.962045 0 0 0-31.962045 31.962045v159.810226a31.962045 31.962045 0 0 0 31.962045 31.962045h159.810226a31.962045 31.962045 0 0 0 31.962045-31.962045v-159.810226a31.962045 31.962045 0 0 0-31.962045-31.962045z" fill="#469FCC" p-id="10006"></path><path d="M719.753293 800.265684h127.84818a15.981023 15.981023 0 0 0 0-31.962045h-127.84818a15.981023 15.981023 0 0 0 0 31.962045zM847.601473 832.22773h-127.84818a15.981023 15.981023 0 0 0 0 31.962045h127.84818a15.981023 15.981023 0 0 0 0-31.962045z" fill="#FFFFFF" p-id="10007"></path><path d="M863.582496 416.721144h-159.810226a31.962045 31.962045 0 0 0-31.962045 31.962045v159.810225a31.962045 31.962045 0 0 0 31.962045 31.962045h159.810226a31.962045 31.962045 0 0 0 31.962045-31.962045v-159.810225a31.962045 31.962045 0 0 0-31.962045-31.962045z" fill="#EF4D4D" p-id="10008"></path><path d="M552.527873 759.769773a15.981023 15.981023 0 0 0-22.597166 0l-33.91173 33.879768-33.911729-33.91173a15.981023 15.981023 0 0 0-22.597166 22.597166l33.91173 33.91173-33.91173 33.91173a15.981023 15.981023 0 0 0 22.597166 22.597166l33.911729-33.91173 33.91173 33.91173a15.981023 15.981023 0 0 0 22.597166-22.597166l-33.91173-33.91173 33.91173-33.91173a15.981023 15.981023 0 0 0 0-22.565204zM272.284662 512.607279H224.341594v-47.943068a15.981023 15.981023 0 0 0-31.962045 0v47.943068H144.436482a15.981023 15.981023 0 0 0 0 31.962045H192.379549v47.943068a15.981023 15.981023 0 0 0 31.962045 0v-47.943068h47.943068a15.981023 15.981023 0 0 0 0-31.962045zM559.943068 512.607279h-127.848181a15.981023 15.981023 0 0 0 0 31.962045h127.848181a15.981023 15.981023 0 0 0 0-31.962045zM272.284662 800.297647h-127.84818a15.981023 15.981023 0 0 0 0 31.962045h127.84818a15.981023 15.981023 0 0 0 0-31.962045z" fill="#DAE2E5" p-id="10009"></path><path d="M208.360572 752.322617m-15.981023 0a15.981023 15.981023 0 1 0 31.962045 0 15.981023 15.981023 0 1 0-31.962045 0Z" fill="#DAE2E5" p-id="10010"></path><path d="M208.360572 880.170797m-15.981023 0a15.981023 15.981023 0 1 0 31.962045 0 15.981023 15.981023 0 1 0-31.962045 0Z" fill="#DAE2E5" p-id="10011"></path><path d="M815.639428 576.531369a47.943068 47.943068 0 0 1 0-95.886135 15.981023 15.981023 0 0 0 0-31.962045 79.905113 79.905113 0 1 0 0 159.810225 15.981023 15.981023 0 0 0 0-31.962045z" fill="#FFFFFF" p-id="10012"></path><path d="M96.493414 97.100693h799.051127v255.69636H96.493414z" fill="#84BF56" p-id="10013"></path><path d="M96.493414 97.100693h799.051127v31.962045H96.493414z" fill="" p-id="10014"></path><path d="M735.734316 161.056745v159.810225h127.84818v-159.810225h-127.84818z m95.886135 127.84818h-63.92409v-95.886135h63.92409v95.886135z" fill="" p-id="10015"></path></svg>