<?xml version="1.0" standalone="no"?><!DOCTYPE svg PUBLIC "-//W3C//DTD SVG 1.1//EN" "http://www.w3.org/Graphics/SVG/1.1/DTD/svg11.dtd"><svg t="1774793400090" class="icon" viewBox="0 0 1024 1024" version="1.1" xmlns="http://www.w3.org/2000/svg" p-id="14773" xmlns:xlink="http://www.w3.org/1999/xlink" width="200" height="200"><path d="M61.44 81.92a61.44 61.44 0 0 0-61.44 61.44v711.68a81.92 81.92 0 0 0 81.92 81.92h706.56a81.92 81.92 0 0 0 81.92-81.92v-604.16a81.92 81.92 0 0 0-81.92-81.92H365.18912a40.96 40.96 0 0 1-34.4064-18.75968l-25.9072-40.1408A61.44 61.44 0 0 0 253.2352 81.92H61.44z" fill="#E36130" p-id="14774"></path><path d="M61.44 256a61.44 61.44 0 0 0-61.44 61.44v563.2a61.44 61.44 0 0 0 61.44 61.44h901.12a61.44 61.44 0 0 0 61.44-61.44V317.44a61.44 61.44 0 0 0-61.44-61.44H61.44z" fill="#FF7744" p-id="14775"></path><path d="M665.88672 665.15968c45.89568-81.89952 34.01728-187.4432-35.6352-257.10592-83.97824-83.968-220.13952-83.968-304.11776 0-83.968 83.97824-83.968 220.13952 0 304.11776 73.32864 73.3184 186.42944 82.62656 269.85472 27.904L685.056 829.1328a51.2 51.2 0 0 0 72.3968-72.41728l-91.56608-91.56608z m-96.47104-196.3008c50.3808 50.39104 50.3808 132.096 0 182.4768-50.39104 50.3808-132.08576 50.3808-182.4768 0-50.3808-50.3808-50.3808-132.08576 0-182.4768 50.39104-50.3808 132.08576-50.3808 182.4768 0z" fill="#FFA17E" p-id="14776"></path></svg>